<svg xmlns="http://www.w3.org/2000/svg" width="200" height="200" class="icon" viewBox="0 0 1024 1024" data-c="1"><path fill="#F60" d="M638.379 397.653H385.62a34.133 34.133 0 0 1-34.133-34.133V110.933A34.133 34.133 0 0 1 385.621 76.8H638.38a34.133 34.133 0 0 1 34.133 34.133V363.52a34.133 34.133 0 0 1-34.133 34.133m-218.624-68.266h184.49v-184.32h-184.49zM368.81 947.2H115.968a34.133 34.133 0 0 1-34.133-34.133V660.48a34.133 34.133 0 0 1 34.133-34.133h252.843a34.133 34.133 0 0 1 34.133 34.133v252.587a34.133 34.133 0 0 1-34.133 34.133M150.1 878.933h184.576v-184.32H150.101zM908.032 947.2H655.189a34.133 34.133 0 0 1-34.133-34.133V660.48a34.133 34.133 0 0 1 34.133-34.133h252.843a34.133 34.133 0 0 1 34.133 34.133v252.587a34.133 34.133 0 0 1-34.133 34.133m-218.71-68.267H873.9v-184.32H689.323z"/><path fill="#F60" d="M783.872 694.784a34.133 34.133 0 0 1-34.133-34.133v-99.328h-471.04v99.328a34.133 34.133 0 1 1-68.267 0V527.189a34.133 34.133 0 0 1 34.133-34.133h539.307a34.133 34.133 0 0 1 34.133 34.133v133.462a34.133 34.133 0 0 1-34.133 34.133"/><path fill="#F60" d="M512 561.323a34.133 34.133 0 0 1-34.133-34.134V363.52a34.133 34.133 0 1 1 68.266 0v163.67A34.133 34.133 0 0 1 512 561.322"/></svg>