<svg xmlns="http://www.w3.org/2000/svg" width="200" height="200" class="icon" viewBox="0 0 1024 1024" data-c="1"><path fill="#02C1B2" d="M506.752 986.88A475.264 475.264 0 0 1 32 512 475.264 475.264 0 0 1 506.752 37.248a472.62 472.62 0 0 1 328.235 131.755l-43.307 45.269a410.33 410.33 0 0 0-284.928-114.39A412.63 412.63 0 0 0 94.635 512a412.63 412.63 0 0 0 412.117 412.117A410.33 410.33 0 0 0 791.68 809.728l43.307 45.27A472.62 472.62 0 0 1 506.752 986.88"/><path fill="#02C1B2" d="M524.715 595.115H370.09L332.032 721.92h-71.253l147.37-444.544h81.067l147.37 444.544h-74.282zm-17.067-54.955-17.493-59.733c-15.147-48.299-28.416-97.835-42.283-147.968h-2.432a3425 3425 0 0 1-41.088 147.968l-18.09 59.733zM664.619 396.587H992v72.533H664.619zM664.619 554.88H992v72.533H664.619z"/></svg>