<svg xmlns="http://www.w3.org/2000/svg" width="200" height="200" class="icon" viewBox="0 0 1024 1024" data-c="1"><path fill="#1777FF" d="M512 73.143c242.359 0 438.857 196.498 438.857 438.857S754.36 950.857 512 950.857 73.143 754.36 73.143 512 269.64 73.143 512 73.143m0 73.143c-201.984 0-365.714 163.73-365.714 365.714S310.016 877.714 512 877.714 877.714 713.984 877.714 512 713.984 146.286 512 146.286m61.367 97.901 6.766 1.207c3.291.659 5.485 3.84 4.864 7.168l-9.948 47.945a6 6 0 0 1-7.022 4.755c-2.925-.512-5.632-1.06-8.448-1.5-61.22-10.386-89.965 2.34-98.304 35.109-4.022 15.872-7.753 31.012-12.946 53.138h64.658a6.056 6.056 0 0 1 6.071 6.071v48.786a6.107 6.107 0 0 1-6.07 6.035h-78.812l-5.413 23.515-.585 2.743c-19.273 84.224-28.672 123.575-37.485 155.611-15.214 55.223-51.018 87.552-102.693 92.05-2.121.147-4.279.33-6.4.366a6.107 6.107 0 0 1-6.327-5.851v-49.152c0-3.218 2.524-5.852 5.705-6.108 2.89-.146 5.742-.438 8.595-.95 21.577-4.023 34.706-18.36 42.459-46.666 8.558-30.866 17.81-69.888 36.79-153.124l.586-2.67 2.304-9.874h-59.867a6.107 6.107 0 0 1-6.108-6.108v-48.786c0-3.364 2.743-6.07 6.108-6.107h73.837c7.095-30.391 11.484-48.567 16.457-68.096 17.81-69.961 79.214-95.452 171.228-79.507m45.531 147.859 33.72 65.719 59.464-65.72h44.727c3.365 0 6.071 2.707 6.108 6.072l-.037 48.713a6.107 6.107 0 0 1-6.107 6.107h-17.738l-56.722 62.72 30.354 59.282h13.568c3.365 0 6.071 2.743 6.108 6.108v48.75a6.107 6.107 0 0 1-6.108 6.107h-50.76l-36.865-71.863-65.097 71.936h-48.42a6.107 6.107 0 0 1-6.108-6.07V581.12a6.12 6.12 0 0 1 6.108-6.107h21.394l62.354-68.974-27.172-53.029h-26.076a6.107 6.107 0 0 1-6.07-6.107v-48.786a6.056 6.056 0 0 1 6.07-6.071h63.269z"/></svg>