<?xml version="1.0" standalone="no"?><!DOCTYPE svg PUBLIC "-//W3C//DTD SVG 1.1//EN" "http://www.w3.org/Graphics/SVG/1.1/DTD/svg11.dtd"><svg t="1733369745237" class="icon" viewBox="0 0 1024 1024" version="1.1" xmlns="http://www.w3.org/2000/svg" p-id="1594" xmlns:xlink="http://www.w3.org/1999/xlink" width="200" height="200"><path d="M830.56 487.04a28.16 28.16 0 0 1-28.16-28.16V191.36a7.04 7.04 0 0 0-7.04-7.04H223.36a7.04 7.04 0 0 0-7.04 7.04v661.76c0 3.904 3.136 7.04 7.04 7.04h254.304a28.16 28.16 0 0 1 0 56.32H188.16a28.16 28.16 0 0 1-28.16-28.16V156.16A28.16 28.16 0 0 1 188.16 128h642.4a28.16 28.16 0 0 1 28.16 28.16v302.72a28.16 28.16 0 0 1-28.16 28.16zM289.376 309.28h414.464a28.16 28.16 0 0 1 0 56.32H289.344a28.16 28.16 0 0 1 0-56.32z m4.384 181.28h186.56a28.16 28.16 0 0 1 0 56.32H293.76a28.16 28.16 0 0 1 0-56.32z m0 181.28h186.56a28.16 28.16 0 0 1 0 56.32H293.76a28.16 28.16 0 0 1 0-56.32z m267.52-181.28h38.72a28.16 28.16 0 0 1 0 56.32h-38.72a28.16 28.16 0 0 1 0-56.32z m19.296 191.552c3.84-18.88 10.816-37.024 20.64-53.6a35.648 35.648 0 0 0 47.616-52.224 172.48 172.48 0 0 1 66.88-29.44 35.648 35.648 0 0 0 70.368 0.16c24.512 5.12 47.104 15.424 66.592 29.664a35.648 35.648 0 0 0 47.328 52.256c9.728 16.512 16.64 34.56 20.416 53.344a35.648 35.648 0 0 0-0.16 69.728c-4.256 20.48-12.16 40-23.424 57.664a35.648 35.648 0 0 0-47.424 49.408 172.448 172.448 0 0 1-63.68 27.424 35.648 35.648 0 0 0-69.696 0.16 172.448 172.448 0 0 1-63.872-27.136 35.648 35.648 0 0 0-47.808-49.504 172.352 172.352 0 0 1-23.616-57.856 35.648 35.648 0 0 0-0.16-70.048z m170.336 93.568a58.528 58.528 0 1 0 0-117.024 58.528 58.528 0 0 0 0 117.024z" fill="#1B8FE0" p-id="1595"></path></svg>