<svg xmlns="http://www.w3.org/2000/svg" width="200" height="200" class="icon" viewBox="0 0 1024 1024" data-c="1"><path fill="#02C1B2" d="M864 96H160A128 128 0 0 0 32 224v576a128 128 0 0 0 128 128h704a128 128 0 0 0 128-128V224A128 128 0 0 0 864 96m64 704a64 64 0 0 1-64 64H160a64 64 0 0 1-64-64V416h832zm0-448H96V224a64 64 0 0 1 64-64h704a64 64 0 0 1 64 64z"/><path fill="#02C1B2" d="M224 224h-32a32 32 0 0 0 0 64h32a32 32 0 0 0 0-64m160 0h-32a32 32 0 0 0 0 64h32a32 32 0 0 0 0-64M256 576a32 32 0 1 0 64 0 32 32 0 1 0-64 0M416 608h320a32 32 0 0 0 0-64H416a32 32 0 0 0 0 64M256 704a32 32 0 1 0 64 0 32 32 0 1 0-64 0M416 736h320a32 32 0 0 0 0-64H416a32 32 0 0 0 0 64"/></svg>