<svg xmlns="http://www.w3.org/2000/svg" width="200" height="200" class="icon" viewBox="0 0 1024 1024" data-c="1"><path fill="#F60" d="M82.578 389.922c-7.288 43.73-7.288 80.17-7.288 123.9v109.324c0 21.865-14.577 36.441-36.442 36.441s-36.44-14.576-36.44-36.441V491.957c0-58.306-7.289-116.612 14.576-167.63 51.018-102.035 174.918-182.206 284.242-182.206h517.466l-72.883-80.17c-14.576-14.577-14.576-36.442 0-51.019s36.442-14.576 51.018 0l138.477 145.766c14.577 14.576 14.577 36.44 0 51.017L796.827 353.48c-7.288 7.289-14.576 14.577-29.153 14.577-7.288 0-21.865 0-29.153-7.288-14.576-14.577-14.576-36.442 0-51.018l87.46-87.46H519.872c-138.476 0-306.106-29.152-408.142 94.748-14.576 21.865-21.865 51.018-29.153 72.883m896.456-21.865c21.864 0 36.44 14.576 36.44 36.441v233.224c0 123.9-160.34 247.801-276.953 247.801h-539.33l72.882 80.171c14.576 14.576 14.576 36.441 0 51.018-14.577 7.288-36.442 7.288-51.018 0L82.578 870.947c-14.576-14.577-14.576-36.442 0-51.018l138.477-145.765c7.288-7.289 21.865-14.577 29.153-14.577s21.865 0 29.153 7.288c14.576 14.577 14.576 36.442 0 51.018l-87.46 87.46h539.332c65.594-7.289 131.188-43.73 167.63-94.748 43.73-58.306 36.441-123.9 36.441-196.783V404.498c7.288-21.865 21.865-36.441 43.73-36.441"/><path fill="#F60" d="M403.261 338.904h233.224v65.594H476.144v102.036h131.188v65.594H476.144v153.053H403.26z"/></svg>