<svg xmlns="http://www.w3.org/2000/svg" width="200" height="200" class="icon" viewBox="0 0 1024 1024" data-c="1"><path fill="#F60" d="M543.983 890.095V439.979a114.756 114.756 0 0 0 0-220.775V133.77a31.403 31.403 0 1 0-62.84 0v85.47a114.756 114.756 0 0 0 0 220.774v450.082a31.403 31.403 0 0 0 62.806 0zm-83.422-560.47a51.985 51.985 0 1 1 103.97-.102 51.985 51.985 0 0 1-103.97.103m364.988 560.47v-60.757a114.756 114.756 0 0 0 0-220.263V133.94a31.403 31.403 0 0 0-62.84 0v474.658a114.756 114.756 0 0 0 0 221.184v60.314a31.403 31.403 0 1 0 62.806-.034zm-84.31-170.906a51.917 51.917 0 1 1 0 .069zM262.35 890.095V742.98a114.756 114.756 0 0 0 0-220.842V133.973a31.403 31.403 0 1 0-62.806 0v388.233a114.756 114.756 0 0 0 0 220.774v147.115a31.403 31.403 0 0 0 62.806 0m-83.354-257.536a51.985 51.985 0 1 1 103.97-.102 51.985 51.985 0 0 1-103.97.102"/></svg>