<svg xmlns="http://www.w3.org/2000/svg" width="200" height="200" class="icon" viewBox="0 0 1024 1024" data-c="1"><path fill="#8D4BBB" d="M830.446 127.808H177.489c-51.88 0-89.538 40.113-89.538 95.37V702.28c0 53.415 35.917 89.332 89.538 89.332h191.354l114.505 111.231c6.14 6.14 14.224 9.21 22.308 9.21 8.186 0 16.27-3.172 22.512-9.312l112.356-111.026h189.922c53.415 0 89.333-35.918 89.333-89.333V223.178c0-55.257-37.555-95.37-89.333-95.37m25.889 574.472c0 18.419-7.47 25.889-25.89 25.889H628.04a31.8 31.8 0 0 0-23.228 9.312l-99.361 97.928-101.305-98.133c-6.447-6.344-14.838-9.414-23.229-9.107H177.49c-18.522 0-26.094-7.47-26.094-25.89v-479.1c0-9.62 2.558-31.927 26.094-31.927h652.957c23.33 0 25.889 22.307 25.889 31.926z"/><path fill="#8D4BBB" d="M255.975 456.487a55 55 0 1 0 112.56 0 55 55 0 1 0-112.56 0M456.53799999999995 456.487a55 55 0 1 0 112.561 0 55 55 0 1 0-112.561 0M655.772 455.77a55 55 0 1 0 112.56 0 55 55 0 1 0-112.56 0"/></svg>